<svg fill="none" version="1.1" viewBox="0 0 24 24" xmlns="http://www.w3.org/2000/svg">
 <style id="current-color-scheme" type="text/css">.ColorScheme-Text {
  color:#232629;}</style>
 <path class="ColorScheme-Text" d="m15.234 16.528v2.9105c0 0.53554-0.43464 0.97018-0.97018 0.97018h-8.4082a0.97018 0.97018 0 0 1-0.97018-0.97018v-10.995c0-0.53554 0.43464-0.97018 0.97018-0.97018h1.617a7.8132 7.8132 0 0 1 1.2936 0.10694m6.4679 8.9481h2.9105c0.53554 0 0.97018-0.43464 0.97018-0.97018v-4.2041c0-3.8462-2.7967-7.0379-6.4679-7.6545a7.8132 7.8132 0 0 0-1.2936-0.10694h-1.617c-0.53554 0-0.97018 0.43464-0.97018 0.97018v3.0183m6.4679 8.9472h-5.4977a0.97018 0.97018 0 0 1-0.97018-0.97018v-7.977m10.349 5.7133v-1.617a2.9105 2.9105 0 0 0-2.9105-2.9105h-1.2936a0.97018 0.97018 0 0 1-0.97018-0.97018v-1.2936a2.9105 2.9105 0 0 0-2.9105-2.9105h-0.97018" stroke="currentColor" stroke-linecap="round" stroke-linejoin="round" stroke-width="1.5"/>
</svg>
