<svg version="1.1" viewBox="0 0 24 24" xmlns="http://www.w3.org/2000/svg">
 <style id="current-color-scheme" type="text/css">.ColorScheme-Text {
        color:#232629;}</style>
 <path class="ColorScheme-Text" d="m19.661 12.801-6.0345-8.0245c-0.36558-0.48614-0.97347-0.77638-1.6261-0.77638-0.6526 0-1.2605 0.29019-1.6261 0.77638l-6.0344 8.0245c-0.40779 0.54235-0.44911 1.2385-0.10764 1.8167 0.34143 0.57822 1.0058 0.93742 1.7338 0.93742h12.069c0.72803 0 1.3924-0.3592 1.7338-0.93742 0.34144-0.57823 0.30012-1.2743-0.10763-1.8167zm-0.89434 1.3383c-0.14628 0.24776-0.4198 0.39566-0.73176 0.39566h-12.069c-0.31196 0-0.58548-0.1479-0.73175-0.39566-0.14628-0.24778-0.12931-0.53441 0.045416-0.76674l6.0344-8.0245c0.15662-0.20826 0.40673-0.3277 0.68632-0.3277 0.2796 0 0.5297 0.11944 0.68632 0.3277l6.0344 8.0245c0.17476 0.23232 0.19167 0.51896 0.04542 0.76674z" fill="currentColor" stroke="currentColor" stroke-linecap="round" stroke-linejoin="round" stroke-width="0"/>
 <path class="ColorScheme-Text" d="m17.86 16.151h-11.72c-1.18 0-2.1402 0.86336-2.1402 1.9246 0 1.0612 0.96008 1.9246 2.1402 1.9246h11.72c1.1801 0 2.1402-0.86335 2.1402-1.9246 0-1.0612-0.96012-1.9246-2.1402-1.9246zm0 2.8289h-11.72c-0.55456 0-1.0057-0.40568-1.0057-0.90432 0-0.49864 0.45111-0.90432 1.0057-0.90432h11.72c0.5545 0 1.0057 0.40568 1.0057 0.90432 0 0.49864-0.45116 0.90432-1.0057 0.90432z" fill="currentColor" stroke="currentColor" stroke-linecap="round" stroke-linejoin="round" stroke-width="0"/>
</svg>
