<svg fill="none" version="1.1" viewBox="0 0 24 24" xmlns="http://www.w3.org/2000/svg">
 <style id="current-color-scheme" type="text/css">.ColorScheme-Text {
  color:#232629;}</style>
 <path class="ColorScheme-Text" d="m7.8536 8.3954h-0.69107a2.0732 1.8023 0 0 0-2.0732 1.8023v6.0076a2.0732 1.8023 0 0 0 2.0732 1.8023h6.9107a2.0732 1.8023 0 0 0 2.0732-1.8023v-6.0076a2.0732 1.8023 0 0 0-2.0732-1.8023h-0.69107m-5.5285 3.0038 2.7643 2.403m0 0 2.7643-2.403m-2.7643 2.403v-10.213m5.5285 7.2091h0.69107a2.0732 1.8023 0 0 1 2.0732 1.8023v6.0076a2.0732 1.8023 0 0 1-2.0732 1.8023h-6.9107a2.0732 1.8023 0 0 1-2.0732-1.8023v-0.60076" stroke="currentColor" stroke-linecap="round" stroke-linejoin="round" stroke-width="1.5"/>
</svg>
