<svg width="24" height="24" version="1.1" viewBox="0 0 24 24" xmlns="http://www.w3.org/2000/svg">
 <style id="current-color-scheme" type="text/css">.ColorScheme-Text {
  color:#232629;}</style>
 <path class="ColorScheme-Text" d="m5.7169 20.247c-0.08113-0.28934-0.098206-0.45153-0.096928-0.94664 0.00128-0.60884 0.045683-0.9055 0.20155-1.3583 0.055509-0.15975 0.14475-0.36025 0.19855-0.44543 0.097786-0.15363 0.098215-0.15526 0.049106-0.23596-0.28609-0.46864-0.41974-0.78854-0.5282-1.2641-0.053376-0.23516-0.062774-0.35986-0.063625-0.85581-0.00125-0.79059 0.081986-1.1957 0.38301-1.8685l0.14134-0.31542-0.14177-0.23636a3.843 3.6677 0 0 1-0.39241-0.90063c-0.067468-0.23882-0.073448-0.30157-0.074721-0.8391-0.0021505-0.63574 0.021352-0.78693 0.18831-1.2425 0.2024-0.55016 0.41974-0.86639 0.95007-1.3815 0.34416-0.33498 0.40266-0.40345 0.3796-0.44583-0.098206-0.17687-0.14134-1.5062-0.066609-2.0352 0.1375-0.9654 0.50813-1.7426 0.97865-2.0514 0.51881-0.34069 1.1397-0.20539 1.5833 0.34517 0.32452 0.40345 0.6089 1.1818 0.68405 1.875 0.01067 0.10025 0.02265 0.18257 0.02563 0.18257 0.0039 0 0.11999-0.053786 0.25876-0.1194 0.57688-0.27304 1.0312-0.379 1.6247-0.379 0.60379 0 1.0483 0.10596 1.6453 0.39204l0.2724 0.13041 0.01972-0.19439c0.02896-0.28567 0.14773-0.79875 0.24681-1.0673 0.24124-0.65285 0.56619-1.0677 0.98595-1.2585 0.16097-0.073344 0.21392-0.083538 0.42443-0.083538 0.21179 0 0.26346 0.010185 0.43128 0.085994 0.45092 0.20376 0.77201 0.65448 0.99743 1.3994 0.09695 0.3199 0.14731 0.60639 0.18746 1.0596 0.0482 0.54608-0.0011 1.4904-0.08877 1.7091-0.02551 0.062764 0.0052 0.097802 0.40436 0.48658 0.51924 0.50411 0.67894 0.73965 0.86255 1.2691 0.19215 0.55749 0.2199 0.72417 0.21905 1.3237-4.25e-4 0.46051-0.0089 0.55913-0.06715 0.78327-0.1012 0.39-0.27755 0.79222-0.45946 1.0444l-0.08073 0.1129 0.11146 0.23147c0.3181 0.65977 0.45304 1.2486 0.45304 1.9741 0 0.82321-0.17976 1.4631-0.59609 2.1207l-0.05983 0.09414 0.09821 0.15486c0.12427 0.19521 0.28525 0.65897 0.34502 0.99317 0.09949 0.55748 0.08534 1.3061-0.03162 1.7088l-0.04519 0.15487h-0.49232c-0.43042 0-0.49489-0.0065-0.51026-0.04413-0.0098-0.02433 0.0175-0.17931 0.06101-0.34396 0.06544-0.2494 0.07851-0.35576 0.07786-0.63777-0.0015-0.63491-0.10847-1.0534-0.3984-1.5535-0.17464-0.30157-0.18788-0.3358-0.18788-0.49107 0-0.16015 0.0084-0.17605 0.17294-0.40508 0.20368-0.28079 0.30616-0.46702 0.39709-0.72132 0.32111-0.90186 0.18362-2.003-0.35867-2.8665-0.07434-0.11859-0.1439-0.25959-0.15457-0.31298-0.02991-0.152 0.02992-0.30483 0.18361-0.47232 0.1469-0.16056 0.35869-0.52815 0.4347-0.75392 0.21818-0.652 0.15199-1.3733-0.18618-2.0262a2.562 2.4452 0 0 0-0.5637-0.73102c-0.24766-0.2274-0.40693-0.33417-0.68235-0.45805-0.3591-0.16138-0.48891-0.18461-1.0462-0.18664-0.40606-0.0012152-0.50899-0.0093755-0.54314-0.042379-0.023043-0.022005-0.099899-0.14956-0.17078-0.28323-0.30874-0.58194-0.80148-0.97153-1.5269-1.2063-0.64691-0.21028-1.2012-0.18135-1.8369 0.095361-0.61146 0.26612-1.0056 0.62269-1.2934 1.1716-0.062771 0.1194-0.13578 0.22699-0.16311 0.23921-0.0269 0.012227-0.27199 0.022823-0.54443 0.024046-0.56193 0.00205-0.69771 0.03097-1.117 0.2384-1.0453 0.51634-1.644 1.7475-1.4018 2.882 0.095221 0.44625 0.28182 0.81099 0.54016 1.0575 0.24296 0.23229 0.24852 0.41812 0.022195 0.77063-0.2246 0.34965-0.37021 0.72742-0.46671 1.2099-0.059792 0.29953-0.06703 0.8933-0.014097 1.1749 0.079427 0.42301 0.25876 0.85416 0.46201 1.1092 0.19898 0.25064 0.23443 0.32603 0.23485 0.498 0 0.14956-0.014955 0.18745-0.19086 0.49066-0.29036 0.50084-0.39583 0.91407-0.39626 1.549 0 0.28078 0.013233 0.38918 0.078562 0.63778 0.043543 0.16464 0.070873 0.3195 0.061047 0.34394-0.015811 0.03878-0.079845 0.0444-0.51282 0.0444h-0.49528zm2.2358-12.751c0.12127-0.033836 0.8557-0.13448 0.97992-0.13448 0.077705 0 0.10035-0.017127 0.1614-0.12145l0.070885-0.12145-0.025621-0.4332c-0.028182-0.47028-0.056793-0.67934-0.13877-1.0123-0.12298-0.49759-0.36381-0.97478-0.5282-1.0461-0.06875-0.030156-0.081129-0.025263-0.15756 0.061133-0.17507 0.19765-0.34032 0.61047-0.43127 1.0726-0.063624 0.32683-0.10846 0.93197-0.088388 1.1952 0.020501 0.27304 0.049116 0.56727 0.054655 0.56727 0.00224 0 0.048255-0.012229 0.10248-0.027318m8.2539-0.18175c0.06102-0.55016 0.0026-1.3628-0.13494-1.862-0.12254-0.44787-0.35952-0.85825-0.4855-0.84072-0.08414 0.01142-0.25833 0.23921-0.35868 0.46865-0.19813 0.45235-0.29891 0.92671-0.33948 1.593-0.02482 0.40997-0.02358 0.43809 0.03331 0.55993 0.0554 0.11859 0.06748 0.12837 0.16183 0.12837 0.1439 0 0.88602 0.10188 0.96671 0.13285 0.12384 0.047268 0.13239 0.036681 0.15672-0.18013m-4.9861 7.3281c-0.80062-0.11899-1.4338-0.53264-1.7388-1.1362-0.14689-0.29058-0.18019-0.4544-0.16397-0.81179 0.015372-0.34436 0.080279-0.56402 0.23997-0.81586 0.27413-0.43075 0.59567-0.70706 1.0936-0.9381 0.50045-0.23229 0.68918-0.27018 1.3485-0.27018 0.4475 0 0.59225 0.0098 0.76433 0.05094 0.96674 0.2327 1.7025 0.85987 1.9083 1.6276 0.0554 0.20704 0.0576 0.64879 0.0052 0.84072-0.21179 0.75799-0.93257 1.3138-1.8843 1.4524-0.33049 0.04799-1.2486 0.0485-1.5718 0m1.5658-0.65203c0.58158-0.11494 1.0278-0.43035 1.1999-0.84846 0.08535-0.20784 0.08414-0.52368-0.0026-0.73558-0.20335-0.49718-0.70977-0.89166-1.3477-1.0493-1.0043-0.24859-2.1307 0.15322-2.5163 0.89696-0.14646 0.28282-0.18233 0.50205-0.12084 0.74006 0.13024 0.50329 0.57047 0.86108 1.2238 0.99438 0.28438 0.05822 1.2711 0.05942 1.5628 0.0025m-0.98818-0.65988q-0.13878-0.07753-0.08123-0.36514c0.01921-0.0978 0.02992-0.18094 0.02429-0.18501-0.0068-5e-3 -0.07268-0.048-0.14774-0.09658-0.22973-0.14834-0.26901-0.33702-0.09822-0.47395 0.10547-0.08472 0.20325-0.08561 0.37405-0.0035l0.1345 0.0652 0.11828-0.06471c0.16354-0.08927 0.28566-0.08472 0.389 0.01396 0.06101 0.05822 0.08293 0.10475 0.08293 0.17647 0 0.12673-0.06054 0.2115-0.21692 0.30441-0.13877 0.08193-0.13578 0.06683-0.07784 0.38715 0.01411 0.07914 0.0045 0.11125-0.0588 0.18217-0.06917 0.07867-0.09049 0.08636-0.23613 0.08561-0.08841-4.19e-4 -0.18105-0.01233-0.20624-0.02643m-3.3649-1.2674c-0.39497-0.11493-0.57047-0.45113-0.42572-0.81505 0.085401-0.21558 0.18959-0.33865 0.35014-0.41485 0.44024-0.20947 0.92488 0.06399 0.92488 0.52244 0 0.20824-0.074712 0.37329-0.2404 0.53141-0.19301 0.1842-0.38729 0.24046-0.6089 0.17606m6.7692-0.01883c-0.14433-0.06035-0.3587-0.28526-0.41121-0.43197-0.16054-0.45031 0.11359-0.84765 0.58499-0.84765 0.19812 0 0.41207 0.10026 0.51411 0.24044 0.10547 0.14549 0.18576 0.36065 0.18489 0.49595-0.0027 0.3953-0.4936 0.70095-0.87277 0.54323" fill="currentColor" stroke="currentColor" stroke-width=".4"/>
</svg>
